<?xml version="1.0" encoding="UTF-8" standalone="no"?>
<!DOCTYPE svg PUBLIC "-//W3C//DTD SVG 1.1//EN"
 "http://www.w3.org/Graphics/SVG/1.1/DTD/svg11.dtd">
<!-- Generated by graphviz version 2.40.1 (20161225.0304)
 -->
<!-- Title: G Pages: 1 -->
<svg width="1337pt" height="360pt"
 viewBox="0.00 0.00 1336.50 360.00" xmlns="http://www.w3.org/2000/svg" xmlns:xlink="http://www.w3.org/1999/xlink">
<g id="graph0" class="graph" transform="scale(1 1) rotate(0) translate(4 356)">
<title>G</title>
<polygon fill="#ffffff" stroke="transparent" points="-4,4 -4,-356 1332.5,-356 1332.5,4 -4,4"/>
<!-- A0 -->
<g id="node1" class="node">
<title>A0</title>
<polygon fill="none" stroke="#000000" points="917.5,-352 863.5,-352 863.5,-316 917.5,-316 917.5,-352"/>
<text text-anchor="middle" x="890.5" y="-331" font-family="Helvetica,sans-Serif" font-size="10.00" fill="#000000">main</text>
</g>
<!-- A1 -->
<g id="node2" class="node">
<title>A1</title>
<polygon fill="none" stroke="#000000" points="211.6171,-230 107.3829,-230 107.3829,-194 211.6171,-194 211.6171,-230"/>
<text text-anchor="middle" x="159.5" y="-209" font-family="Helvetica,sans-Serif" font-size="10.00" fill="#000000">customerHandler</text>
</g>
<!-- A0&#45;&gt;A1 -->
<g id="edge1" class="edge">
<title>A0&#45;&gt;A1</title>
<path fill="none" stroke="#000000" stroke-dasharray="5,2" d="M863.1781,-329.4401C757.4593,-311.7962 373.6039,-247.7328 221.8521,-222.4062"/>
<polygon fill="#000000" stroke="#000000" points="211.7655,-220.7228 222.3699,-217.9305 216.6973,-221.546 221.6291,-222.3691 221.6291,-222.3691 221.6291,-222.3691 216.6973,-221.546 220.8882,-226.8077 211.7655,-220.7228 211.7655,-220.7228"/>
</g>
<!-- A4 -->
<g id="node5" class="node">
<title>A4</title>
<polygon fill="none" stroke="#000000" points="601.6181,-230 507.3819,-230 507.3819,-194 601.6181,-194 601.6181,-230"/>
<text text-anchor="middle" x="554.5" y="-209" font-family="Helvetica,sans-Serif" font-size="10.00" fill="#000000">vehicleHandler</text>
</g>
<!-- A0&#45;&gt;A4 -->
<g id="edge8" class="edge">
<title>A0&#45;&gt;A4</title>
<path fill="none" stroke="#000000" stroke-dasharray="5,2" d="M863.2883,-324.1196C808.6397,-304.2769 684.5343,-259.2148 611.3844,-232.6545"/>
<polygon fill="#000000" stroke="#000000" points="601.8506,-229.1928 612.786,-228.376 606.5504,-230.8993 611.2502,-232.6058 611.2502,-232.6058 611.2502,-232.6058 606.5504,-230.8993 609.7143,-236.8356 601.8506,-229.1928 601.8506,-229.1928"/>
</g>
<!-- A9 -->
<g id="node10" class="node">
<title>A9</title>
<polygon fill="none" stroke="#000000" points="949.522,-230 831.478,-230 831.478,-194 949.522,-194 949.522,-230"/>
<text text-anchor="middle" x="890.5" y="-209" font-family="Helvetica,sans-Serif" font-size="10.00" fill="#000000">appointmentHandler</text>
</g>
<!-- A0&#45;&gt;A9 -->
<g id="edge4" class="edge">
<title>A0&#45;&gt;A9</title>
<path fill="none" stroke="#000000" stroke-dasharray="5,2" d="M890.5,-315.9985C890.5,-295.9958 890.5,-263.4427 890.5,-240.0831"/>
<polygon fill="#000000" stroke="#000000" points="890.5,-230.0754 895.0001,-240.0753 890.5,-235.0754 890.5001,-240.0754 890.5001,-240.0754 890.5001,-240.0754 890.5,-235.0754 886.0001,-240.0754 890.5,-230.0754 890.5,-230.0754"/>
</g>
<!-- A12 -->
<g id="node13" class="node">
<title>A12</title>
<polygon fill="none" stroke="#000000" points="1167.7922,-230 1057.2078,-230 1057.2078,-194 1167.7922,-194 1167.7922,-230"/>
<text text-anchor="middle" x="1112.5" y="-209" font-family="Helvetica,sans-Serif" font-size="10.00" fill="#000000">notificationHandler</text>
</g>
<!-- A0&#45;&gt;A12 -->
<g id="edge13" class="edge">
<title>A0&#45;&gt;A12</title>
<path fill="none" stroke="#000000" stroke-dasharray="5,2" d="M917.7216,-319.0404C955.9583,-298.0274 1025.9051,-259.5882 1070.7468,-234.9455"/>
<polygon fill="#000000" stroke="#000000" points="1079.6386,-230.059 1073.0421,-238.8189 1075.2567,-232.4671 1070.8748,-234.8752 1070.8748,-234.8752 1070.8748,-234.8752 1075.2567,-232.4671 1068.7075,-230.9314 1079.6386,-230.059 1079.6386,-230.059"/>
</g>
<!-- A15 -->
<g id="node16" class="node">
<title>A15</title>
<polygon fill="none" stroke="#000000" points="1185.5,-234 1185.5,-266 1265.5,-266 1265.5,-234 1185.5,-234"/>
<text text-anchor="start" x="1195.486" y="-247" font-family="Helvetica,sans-Serif" font-size="10.00" fill="#000000">authenticaton</text>
<polygon fill="none" stroke="#000000" points="1185.5,-202 1185.5,-234 1265.5,-234 1265.5,-202 1185.5,-202"/>
<text text-anchor="start" x="1212.997" y="-215" font-family="Helvetica,sans-Serif" font-size="10.00" fill="#000000">$user</text>
<polygon fill="none" stroke="#000000" points="1185.5,-158 1185.5,-202 1265.5,-202 1265.5,-158 1185.5,-158"/>
<text text-anchor="start" x="1211.6135" y="-183" font-family="Helvetica,sans-Serif" font-size="10.00" fill="#000000">login()</text>
<text text-anchor="start" x="1208.554" y="-171" font-family="Helvetica,sans-Serif" font-size="10.00" fill="#000000">logout()</text>
</g>
<!-- A0&#45;&gt;A15 -->
<g id="edge7" class="edge">
<title>A0&#45;&gt;A15</title>
<path fill="none" stroke="#000000" stroke-dasharray="5,2" d="M917.7004,-332.8291C970.966,-329.4473 1091.2561,-316.3665 1176.5,-266 1176.6907,-265.8873 1176.8811,-265.7736 1177.0712,-265.659"/>
<polygon fill="#000000" stroke="#000000" points="1185.3923,-259.9126 1179.7209,-269.298 1181.278,-262.7538 1177.1638,-265.5951 1177.1638,-265.5951 1177.1638,-265.5951 1181.278,-262.7538 1174.6066,-261.8923 1185.3923,-259.9126 1185.3923,-259.9126"/>
</g>
<!-- A2 -->
<g id="node3" class="node">
<title>A2</title>
<polygon fill="none" stroke="#000000" points=".5,-70 .5,-102 93.5,-102 93.5,-70 .5,-70"/>
<text text-anchor="start" x="10.051" y="-83" font-family="Helvetica,sans-Serif" font-size="10.00" fill="#000000">customerReader</text>
<polygon fill="none" stroke="#000000" points=".5,-38 .5,-70 93.5,-70 93.5,-38 .5,-38"/>
<text text-anchor="start" x="26.9985" y="-51" font-family="Helvetica,sans-Serif" font-size="10.00" fill="#000000">variables</text>
<polygon fill="none" stroke="#000000" points=".5,-6 .5,-38 93.5,-38 93.5,-6 .5,-6"/>
<text text-anchor="start" x="15.056" y="-19" font-family="Helvetica,sans-Serif" font-size="10.00" fill="#000000">getCustomer()</text>
</g>
<!-- A1&#45;&gt;A2 -->
<g id="edge2" class="edge">
<title>A1&#45;&gt;A2</title>
<path fill="none" stroke="#000000" stroke-dasharray="5,2" d="M140.7156,-185.7351C124.4842,-163.0398 100.6093,-129.6572 80.9552,-102.1764"/>
<polygon fill="#000000" stroke="#000000" points="146.5375,-193.8754 137.0599,-188.3593 143.6288,-189.8085 140.7202,-185.7415 140.7202,-185.7415 140.7202,-185.7415 143.6288,-189.8085 144.3804,-183.1237 146.5375,-193.8754 146.5375,-193.8754"/>
</g>
<!-- A3 -->
<g id="node4" class="node">
<title>A3</title>
<polygon fill="none" stroke="#000000" points="111.5,-76 111.5,-108 208.5,-108 208.5,-76 111.5,-76"/>
<text text-anchor="start" x="126.116" y="-89" font-family="Helvetica,sans-Serif" font-size="10.00" fill="#000000">customerWriter</text>
<polygon fill="none" stroke="#000000" points="111.5,-56 111.5,-76 208.5,-76 208.5,-56 111.5,-56"/>
<polygon fill="none" stroke="#000000" points="111.5,0 111.5,-56 208.5,-56 208.5,0 111.5,0"/>
<text text-anchor="start" x="121.112" y="-37" font-family="Helvetica,sans-Serif" font-size="10.00" fill="#000000">createCustomer()</text>
<text text-anchor="start" x="121.3875" y="-25" font-family="Helvetica,sans-Serif" font-size="10.00" fill="#000000">deleteCustomer()</text>
<text text-anchor="start" x="126.3755" y="-13" font-family="Helvetica,sans-Serif" font-size="10.00" fill="#000000">updateAddress</text>
</g>
<!-- A1&#45;&gt;A3 -->
<g id="edge3" class="edge">
<title>A1&#45;&gt;A3</title>
<path fill="none" stroke="#000000" stroke-dasharray="5,2" d="M159.5,-183.7158C159.5,-162.722 159.5,-133.4506 159.5,-108.0259"/>
<polygon fill="#000000" stroke="#000000" points="159.5,-193.8754 155.0001,-183.8753 159.5,-188.8754 159.5001,-183.8754 159.5001,-183.8754 159.5001,-183.8754 159.5,-188.8754 164.0001,-183.8754 159.5,-193.8754 159.5,-193.8754"/>
</g>
<!-- A5 -->
<g id="node6" class="node">
<title>A5</title>
<polygon fill="none" stroke="#000000" points="226.5,-76 226.5,-108 316.5,-108 316.5,-76 226.5,-76"/>
<text text-anchor="start" x="242.6155" y="-89" font-family="Helvetica,sans-Serif" font-size="10.00" fill="#000000">vehicleWriter</text>
<polygon fill="none" stroke="#000000" points="226.5,-56 226.5,-76 316.5,-76 316.5,-56 226.5,-56"/>
<polygon fill="none" stroke="#000000" points="226.5,0 226.5,-56 316.5,-56 316.5,0 226.5,0"/>
<text text-anchor="start" x="237.8865" y="-37" font-family="Helvetica,sans-Serif" font-size="10.00" fill="#000000">createVehicle()</text>
<text text-anchor="start" x="238.162" y="-25" font-family="Helvetica,sans-Serif" font-size="10.00" fill="#000000">deleteVehicle()</text>
<text text-anchor="start" x="236.492" y="-13" font-family="Helvetica,sans-Serif" font-size="10.00" fill="#000000">updateVehicle()</text>
</g>
<!-- A4&#45;&gt;A5 -->
<g id="edge9" class="edge">
<title>A4&#45;&gt;A5</title>
<path fill="none" stroke="#000000" stroke-dasharray="5,2" d="M497.5208,-192.6803C449.2837,-174.8362 379.5636,-145.453 325.5,-108 322.5574,-105.9615 319.6348,-103.7523 316.7608,-101.4311"/>
<polygon fill="#000000" stroke="#000000" points="507.1724,-196.2028 496.2357,-197.0015 502.4755,-194.4885 497.7785,-192.7743 497.7785,-192.7743 497.7785,-192.7743 502.4755,-194.4885 499.3214,-188.547 507.1724,-196.2028 507.1724,-196.2028"/>
</g>
<!-- A6 -->
<g id="node7" class="node">
<title>A6</title>
<polygon fill="none" stroke="#000000" points="334.5,-64 334.5,-96 460.5,-96 460.5,-64 334.5,-64"/>
<text text-anchor="start" x="365.5505" y="-77" font-family="Helvetica,sans-Serif" font-size="10.00" fill="#000000">vehicleReader</text>
<polygon fill="none" stroke="#000000" points="334.5,-44 334.5,-64 460.5,-64 460.5,-44 334.5,-44"/>
<polygon fill="none" stroke="#000000" points="334.5,-12 334.5,-44 460.5,-44 460.5,-12 334.5,-12"/>
<text text-anchor="start" x="344.4395" y="-25" font-family="Helvetica,sans-Serif" font-size="10.00" fill="#000000">getvehicle($customerid)</text>
</g>
<!-- A4&#45;&gt;A6 -->
<g id="edge10" class="edge">
<title>A4&#45;&gt;A6</title>
<path fill="none" stroke="#000000" stroke-dasharray="5,2" d="M529.4143,-186.7545C505.2048,-162.3908 468.1024,-125.0521 439.4055,-96.1724"/>
<polygon fill="#000000" stroke="#000000" points="536.4901,-193.8754 526.2494,-189.9538 532.9658,-190.3286 529.4415,-186.7819 529.4415,-186.7819 529.4415,-186.7819 532.9658,-190.3286 532.6336,-183.61 536.4901,-193.8754 536.4901,-193.8754"/>
</g>
<!-- A7 -->
<g id="node8" class="node">
<title>A7</title>
<polygon fill="none" stroke="#000000" points="479.5,-64 479.5,-96 630.5,-96 630.5,-64 479.5,-64"/>
<text text-anchor="start" x="507.2225" y="-77" font-family="Helvetica,sans-Serif" font-size="10.00" fill="#000000">serviceHistoryReader</text>
<polygon fill="none" stroke="#000000" points="479.5,-44 479.5,-64 630.5,-64 630.5,-44 479.5,-44"/>
<polygon fill="none" stroke="#000000" points="479.5,-12 479.5,-44 630.5,-44 630.5,-12 479.5,-12"/>
<text text-anchor="start" x="489.1665" y="-25" font-family="Helvetica,sans-Serif" font-size="10.00" fill="#000000">getServiceHistory($vehicleID)</text>
</g>
<!-- A4&#45;&gt;A7 -->
<g id="edge11" class="edge">
<title>A4&#45;&gt;A7</title>
<path fill="none" stroke="#000000" stroke-dasharray="5,2" d="M554.5,-183.8618C554.5,-159.5066 554.5,-123.9318 554.5,-96.1724"/>
<polygon fill="#000000" stroke="#000000" points="554.5,-193.8754 550.0001,-183.8753 554.5,-188.8754 554.5001,-183.8754 554.5001,-183.8754 554.5001,-183.8754 554.5,-188.8754 559.0001,-183.8754 554.5,-193.8754 554.5,-193.8754"/>
</g>
<!-- A8 -->
<g id="node9" class="node">
<title>A8</title>
<polygon fill="none" stroke="#000000" points="648.5,-76 648.5,-108 770.5,-108 770.5,-76 648.5,-76"/>
<text text-anchor="start" x="664.7875" y="-89" font-family="Helvetica,sans-Serif" font-size="10.00" fill="#000000">serviceHistoryWriter</text>
<polygon fill="none" stroke="#000000" points="648.5,-56 648.5,-76 770.5,-76 770.5,-56 648.5,-56"/>
<polygon fill="none" stroke="#000000" points="648.5,0 648.5,-56 770.5,-56 770.5,0 648.5,0"/>
<text text-anchor="start" x="659.4985" y="-37" font-family="Helvetica,sans-Serif" font-size="10.00" fill="#000000">createServiceRecord()</text>
<text text-anchor="start" x="658.104" y="-25" font-family="Helvetica,sans-Serif" font-size="10.00" fill="#000000">updateServiceRecord()</text>
<text text-anchor="start" x="659.774" y="-13" font-family="Helvetica,sans-Serif" font-size="10.00" fill="#000000">deleteServiceRecord()</text>
</g>
<!-- A4&#45;&gt;A8 -->
<g id="edge12" class="edge">
<title>A4&#45;&gt;A8</title>
<path fill="none" stroke="#000000" stroke-dasharray="5,2" d="M579.4654,-186.5514C600.1999,-165.4155 630.4139,-134.6168 656.4999,-108.0259"/>
<polygon fill="#000000" stroke="#000000" points="572.2805,-193.8754 576.0711,-183.5855 575.782,-190.3061 579.2835,-186.7368 579.2835,-186.7368 579.2835,-186.7368 575.782,-190.3061 582.4958,-189.8882 572.2805,-193.8754 572.2805,-193.8754"/>
</g>
<!-- A10 -->
<g id="node11" class="node">
<title>A10</title>
<polygon fill="none" stroke="#000000" points="789.5,-76 789.5,-108 902.5,-108 902.5,-76 789.5,-76"/>
<text text-anchor="start" x="805.1635" y="-89" font-family="Helvetica,sans-Serif" font-size="10.00" fill="#000000">appointmentWriter</text>
<polygon fill="none" stroke="#000000" points="789.5,-56 789.5,-76 902.5,-76 902.5,-56 789.5,-56"/>
<polygon fill="none" stroke="#000000" points="789.5,0 789.5,-56 902.5,-56 902.5,0 789.5,0"/>
<text text-anchor="start" x="800.714" y="-37" font-family="Helvetica,sans-Serif" font-size="10.00" fill="#000000">createAppointment()</text>
<text text-anchor="start" x="799.3195" y="-25" font-family="Helvetica,sans-Serif" font-size="10.00" fill="#000000">updateAppointment()</text>
<text text-anchor="start" x="800.9895" y="-13" font-family="Helvetica,sans-Serif" font-size="10.00" fill="#000000">deleteAppointment()</text>
</g>
<!-- A9&#45;&gt;A10 -->
<g id="edge5" class="edge">
<title>A9&#45;&gt;A10</title>
<path fill="none" stroke="#000000" stroke-dasharray="5,2" d="M882.5265,-184.0041C876.5416,-162.9906 868.1615,-133.5672 860.8871,-108.0259"/>
<polygon fill="#000000" stroke="#000000" points="885.3379,-193.8754 878.2708,-185.4905 883.9683,-189.0666 882.5987,-184.2579 882.5987,-184.2579 882.5987,-184.2579 883.9683,-189.0666 886.9266,-183.0252 885.3379,-193.8754 885.3379,-193.8754"/>
</g>
<!-- A11 -->
<g id="node12" class="node">
<title>A11</title>
<polygon fill="none" stroke="#000000" points="920.5,-64 920.5,-96 1087.5,-96 1087.5,-64 920.5,-64"/>
<text text-anchor="start" x="960.0985" y="-77" font-family="Helvetica,sans-Serif" font-size="10.00" fill="#000000">appointmentReader</text>
<polygon fill="none" stroke="#000000" points="920.5,-44 920.5,-64 1087.5,-64 1087.5,-44 920.5,-44"/>
<polygon fill="none" stroke="#000000" points="920.5,-12 920.5,-44 1087.5,-44 1087.5,-12 920.5,-12"/>
<text text-anchor="start" x="930.37" y="-25" font-family="Helvetica,sans-Serif" font-size="10.00" fill="#000000">getAppointment($appointmentID)</text>
</g>
<!-- A9&#45;&gt;A11 -->
<g id="edge6" class="edge">
<title>A9&#45;&gt;A11</title>
<path fill="none" stroke="#000000" stroke-dasharray="5,2" d="M909.4648,-185.4829C926.899,-161.1058 953.0404,-124.5542 973.3387,-96.1724"/>
<polygon fill="#000000" stroke="#000000" points="903.4625,-193.8754 905.6196,-183.1237 906.3712,-189.8085 909.2798,-185.7415 909.2798,-185.7415 909.2798,-185.7415 906.3712,-189.8085 912.9401,-188.3593 903.4625,-193.8754 903.4625,-193.8754"/>
</g>
<!-- A13 -->
<g id="node14" class="node">
<title>A13</title>
<polygon fill="none" stroke="#000000" points="1104.5,-76 1104.5,-108 1210.5,-108 1210.5,-76 1104.5,-76"/>
<text text-anchor="start" x="1120.2785" y="-89" font-family="Helvetica,sans-Serif" font-size="10.00" fill="#000000">notificationWriter</text>
<polygon fill="none" stroke="#000000" points="1104.5,-56 1104.5,-76 1210.5,-76 1210.5,-56 1104.5,-56"/>
<polygon fill="none" stroke="#000000" points="1104.5,0 1104.5,-56 1210.5,-56 1210.5,0 1104.5,0"/>
<text text-anchor="start" x="1115.554" y="-37" font-family="Helvetica,sans-Serif" font-size="10.00" fill="#000000">createNotification()</text>
<text text-anchor="start" x="1114.1595" y="-25" font-family="Helvetica,sans-Serif" font-size="10.00" fill="#000000">updateNotification()</text>
<text text-anchor="start" x="1115.8295" y="-13" font-family="Helvetica,sans-Serif" font-size="10.00" fill="#000000">deleteNotification()</text>
</g>
<!-- A12&#45;&gt;A13 -->
<g id="edge14" class="edge">
<title>A12&#45;&gt;A13</title>
<path fill="none" stroke="#000000" stroke-dasharray="5,2" d="M1120.4735,-184.0041C1126.4584,-162.9906 1134.8385,-133.5672 1142.1129,-108.0259"/>
<polygon fill="#000000" stroke="#000000" points="1117.6621,-193.8754 1116.0734,-183.0252 1119.0317,-189.0666 1120.4013,-184.2579 1120.4013,-184.2579 1120.4013,-184.2579 1119.0317,-189.0666 1124.7292,-185.4905 1117.6621,-193.8754 1117.6621,-193.8754"/>
</g>
<!-- A14 -->
<g id="node15" class="node">
<title>A14</title>
<polygon fill="none" stroke="#000000" points="1228.5,-64 1228.5,-96 1328.5,-96 1328.5,-64 1228.5,-64"/>
<text text-anchor="start" x="1238.2135" y="-77" font-family="Helvetica,sans-Serif" font-size="10.00" fill="#000000">notificationReader</text>
<polygon fill="none" stroke="#000000" points="1228.5,-44 1228.5,-64 1328.5,-64 1328.5,-44 1228.5,-44"/>
<polygon fill="none" stroke="#000000" points="1228.5,-12 1228.5,-44 1328.5,-44 1328.5,-12 1228.5,-12"/>
<text text-anchor="start" x="1243.498" y="-25" font-family="Helvetica,sans-Serif" font-size="10.00" fill="#000000">getNotification()</text>
</g>
<!-- A12&#45;&gt;A14 -->
<g id="edge15" class="edge">
<title>A12&#45;&gt;A14</title>
<path fill="none" stroke="#000000" stroke-dasharray="5,2" d="M1139.0237,-186.7545C1164.6211,-162.3908 1203.8503,-125.0521 1234.1922,-96.1724"/>
<polygon fill="#000000" stroke="#000000" points="1131.5423,-193.8754 1135.6833,-183.7214 1135.1641,-190.4282 1138.7858,-186.981 1138.7858,-186.981 1138.7858,-186.981 1135.1641,-190.4282 1141.8883,-190.2406 1131.5423,-193.8754 1131.5423,-193.8754"/>
</g>
</g>
</svg>
