<?xml version="1.0" encoding="UTF-8" standalone="no"?>
<!DOCTYPE svg PUBLIC "-//W3C//DTD SVG 1.1//EN"
 "http://www.w3.org/Graphics/SVG/1.1/DTD/svg11.dtd">
<!-- Generated by graphviz version 2.40.1 (20161225.0304)
 -->
<!-- Title: G Pages: 1 -->
<svg width="313pt" height="630pt"
 viewBox="0.00 0.00 313.00 630.00" xmlns="http://www.w3.org/2000/svg" xmlns:xlink="http://www.w3.org/1999/xlink">
<g id="graph0" class="graph" transform="scale(1 1) rotate(0) translate(4 626)">
<title>G</title>
<polygon fill="#ffffff" stroke="transparent" points="-4,4 -4,-626 309,-626 309,4 -4,4"/>
<!-- A0 -->
<g id="node1" class="node">
<title>A0</title>
<polygon fill="none" stroke="#000000" points="94,-590 94,-622 195,-622 195,-590 94,-590"/>
<text text-anchor="start" x="114.4905" y="-603" font-family="Helvetica,sans-Serif" font-size="10.00" fill="#000000">appointments</text>
<polygon fill="none" stroke="#000000" points="94,-486 94,-590 195,-590 195,-486 94,-486"/>
<text text-anchor="start" x="103.933" y="-571" font-family="Helvetica,sans-Serif" font-size="10.00" fill="#000000">PK:appointmentID</text>
<text text-anchor="start" x="118.944" y="-559" font-family="Helvetica,sans-Serif" font-size="10.00" fill="#000000">customerID</text>
<text text-anchor="start" x="117.5535" y="-547" font-family="Helvetica,sans-Serif" font-size="10.00" fill="#000000">serviceType</text>
<text text-anchor="start" x="106.4325" y="-535" font-family="Helvetica,sans-Serif" font-size="10.00" fill="#000000">appointmentDate</text>
<text text-anchor="start" x="132.272" y="-523" font-family="Helvetica,sans-Serif" font-size="10.00" fill="#000000">notes</text>
<text text-anchor="start" x="123.9435" y="-511" font-family="Helvetica,sans-Serif" font-size="10.00" fill="#000000">vehicleID</text>
<text text-anchor="start" x="131.162" y="-499" font-family="Helvetica,sans-Serif" font-size="10.00" fill="#000000">status</text>
</g>
<!-- A1 -->
<g id="node2" class="node">
<title>A1</title>
<polygon fill="none" stroke="#000000" points="101,-404 101,-436 188,-436 188,-404 101,-404"/>
<text text-anchor="start" x="121.443" y="-417" font-family="Helvetica,sans-Serif" font-size="10.00" fill="#000000">customers</text>
<polygon fill="none" stroke="#000000" points="101,-336 101,-404 188,-404 188,-336 101,-336"/>
<text text-anchor="start" x="110.8855" y="-385" font-family="Helvetica,sans-Serif" font-size="10.00" fill="#000000">PK:customerID</text>
<text text-anchor="start" x="123.6635" y="-373" font-family="Helvetica,sans-Serif" font-size="10.00" fill="#000000">visitcount</text>
<text text-anchor="start" x="132.5575" y="-361" font-family="Helvetica,sans-Serif" font-size="10.00" fill="#000000">email</text>
<text text-anchor="start" x="130.6025" y="-349" font-family="Helvetica,sans-Serif" font-size="10.00" fill="#000000">phone</text>
</g>
<!-- A0&#45;&gt;A1 -->
<g id="edge1" class="edge">
<title>A0&#45;&gt;A1</title>
<path fill="none" stroke="#000000" d="M144,-475.5115C144,-462.1529 144,-448.6076 144,-436.2348"/>
<polygon fill="#000000" stroke="#000000" points="144,-485.668 139.5001,-475.6679 144,-480.668 144.0001,-475.668 144.0001,-475.668 144.0001,-475.668 144,-480.668 148.5001,-475.668 144,-485.668 144,-485.668"/>
<text text-anchor="middle" x="152.4524" y="-451.361" font-family="Helvetica,sans-Serif" font-size="10.00" fill="#000000">* customerID *..</text>
</g>
<!-- A2 -->
<g id="node3" class="node">
<title>A2</title>
<polygon fill="none" stroke="#000000" points="9,-254 9,-286 86,-286 86,-254 9,-254"/>
<text text-anchor="start" x="29.4425" y="-267" font-family="Helvetica,sans-Serif" font-size="10.00" fill="#000000">vehicles</text>
<polygon fill="none" stroke="#000000" points="9,-126 9,-254 86,-254 86,-126 9,-126"/>
<text text-anchor="start" x="18.885" y="-235" font-family="Helvetica,sans-Serif" font-size="10.00" fill="#000000">PK:vehicleID</text>
<text text-anchor="start" x="21.944" y="-223" font-family="Helvetica,sans-Serif" font-size="10.00" fill="#000000">customerID</text>
<text text-anchor="start" x="35.2765" y="-211" font-family="Helvetica,sans-Serif" font-size="10.00" fill="#000000">make</text>
<text text-anchor="start" x="33.8875" y="-199" font-family="Helvetica,sans-Serif" font-size="10.00" fill="#000000">model</text>
<text text-anchor="start" x="37.7765" y="-187" font-family="Helvetica,sans-Serif" font-size="10.00" fill="#000000">year</text>
<text text-anchor="start" x="41.111" y="-175" font-family="Helvetica,sans-Serif" font-size="10.00" fill="#000000">vin</text>
<text text-anchor="start" x="31.9425" y="-163" font-family="Helvetica,sans-Serif" font-size="10.00" fill="#000000">license</text>
<text text-anchor="start" x="36.667" y="-151" font-family="Helvetica,sans-Serif" font-size="10.00" fill="#000000">color</text>
<text text-anchor="start" x="35.837" y="-139" font-family="Helvetica,sans-Serif" font-size="10.00" fill="#000000">miles</text>
</g>
<!-- A1&#45;&gt;A2 -->
<g id="edge2" class="edge">
<title>A1&#45;&gt;A2</title>
<path fill="none" stroke="#000000" d="M116.9801,-335.86C108.7974,-320.6756 99.5925,-303.5943 90.6133,-286.9319"/>
<polygon fill="#000000" stroke="#000000" points="85.656,-277.7328 94.3614,-284.4011 88.028,-282.1343 90.4,-286.5359 90.4,-286.5359 90.4,-286.5359 88.028,-282.1343 86.4385,-288.6707 85.656,-277.7328 85.656,-277.7328"/>
<text text-anchor="middle" x="100.9405" y="-320.913" font-family="Helvetica,sans-Serif" font-size="10.00" fill="#000000">..* vehicleID *</text>
</g>
<!-- A3 -->
<g id="node4" class="node">
<title>A3</title>
<polygon fill="none" stroke="#000000" points="104,-242 104,-274 185,-274 185,-242 104,-242"/>
<text text-anchor="start" x="126.7175" y="-255" font-family="Helvetica,sans-Serif" font-size="10.00" fill="#000000">address</text>
<polygon fill="none" stroke="#000000" points="104,-138 104,-242 185,-242 185,-138 104,-138"/>
<text text-anchor="start" x="113.66" y="-223" font-family="Helvetica,sans-Serif" font-size="10.00" fill="#000000">PK:addressID</text>
<text text-anchor="start" x="120.054" y="-211" font-family="Helvetica,sans-Serif" font-size="10.00" fill="#000000">customerid</text>
<text text-anchor="start" x="123.938" y="-199" font-family="Helvetica,sans-Serif" font-size="10.00" fill="#000000">address1</text>
<text text-anchor="start" x="123.938" y="-187" font-family="Helvetica,sans-Serif" font-size="10.00" fill="#000000">address2</text>
<text text-anchor="start" x="137.001" y="-175" font-family="Helvetica,sans-Serif" font-size="10.00" fill="#000000">city</text>
<text text-anchor="start" x="133.662" y="-163" font-family="Helvetica,sans-Serif" font-size="10.00" fill="#000000">state</text>
<text text-anchor="start" x="138.111" y="-151" font-family="Helvetica,sans-Serif" font-size="10.00" fill="#000000">zip</text>
</g>
<!-- A1&#45;&gt;A3 -->
<g id="edge5" class="edge">
<title>A1&#45;&gt;A3</title>
<path fill="none" stroke="#000000" d="M144,-335.86C144,-319.8597 144,-301.7531 144,-284.2498"/>
<polygon fill="#000000" stroke="#000000" points="144,-274.0342 148.5001,-284.0342 144,-279.0342 144.0001,-284.0342 144.0001,-284.0342 144.0001,-284.0342 144,-279.0342 139.5001,-284.0343 144,-274.0342 144,-274.0342"/>
<text text-anchor="middle" x="152.4524" y="-289.1604" font-family="Helvetica,sans-Serif" font-size="10.00" fill="#000000">* addressID 1..</text>
</g>
<!-- A4 -->
<g id="node5" class="node">
<title>A4</title>
<polygon fill="none" stroke="#000000" points="203,-230 203,-262 305,-262 305,-230 203,-230"/>
<text text-anchor="start" x="212.6035" y="-243" font-family="Helvetica,sans-Serif" font-size="10.00" fill="#000000">notification_history</text>
<polygon fill="none" stroke="#000000" points="203,-150 203,-230 305,-230 305,-150 203,-150"/>
<text text-anchor="start" x="217.048" y="-211" font-family="Helvetica,sans-Serif" font-size="10.00" fill="#000000">PK:notificationID</text>
<text text-anchor="start" x="228.444" y="-199" font-family="Helvetica,sans-Serif" font-size="10.00" fill="#000000">customerID</text>
<text text-anchor="start" x="230.3795" y="-187" font-family="Helvetica,sans-Serif" font-size="10.00" fill="#000000">createdate</text>
<text text-anchor="start" x="233.7175" y="-175" font-family="Helvetica,sans-Serif" font-size="10.00" fill="#000000">message</text>
<text text-anchor="start" x="220.1015" y="-163" font-family="Helvetica,sans-Serif" font-size="10.00" fill="#000000">notificatonType</text>
</g>
<!-- A1&#45;&gt;A4 -->
<g id="edge4" class="edge">
<title>A1&#45;&gt;A4</title>
<path fill="none" stroke="#000000" d="M174.6411,-335.86C186.9331,-315.7459 201.2592,-292.3031 214.33,-270.9145"/>
<polygon fill="#000000" stroke="#000000" points="219.6525,-262.205 218.2777,-273.0844 217.0452,-266.4714 214.4379,-270.7378 214.4379,-270.7378 214.4379,-270.7378 217.0452,-266.4714 210.5982,-268.3913 219.6525,-262.205 219.6525,-262.205"/>
<text text-anchor="middle" x="176.8808" y="-312.9858" font-family="Helvetica,sans-Serif" font-size="10.00" fill="#000000">..* customerID *</text>
</g>
<!-- A5 -->
<g id="node6" class="node">
<title>A5</title>
<polygon fill="none" stroke="#000000" points="0,-44 0,-76 94,-76 94,-44 0,-44"/>
<text text-anchor="start" x="13.665" y="-57" font-family="Helvetica,sans-Serif" font-size="10.00" fill="#000000">service_history</text>
<polygon fill="none" stroke="#000000" points="0,0 0,-44 94,-44 94,0 0,0"/>
<text text-anchor="start" x="9.501" y="-25" font-family="Helvetica,sans-Serif" font-size="10.00" fill="#000000">PK:serviceHistID</text>
<text text-anchor="start" x="26.4435" y="-13" font-family="Helvetica,sans-Serif" font-size="10.00" fill="#000000">vehicleID</text>
</g>
<!-- A2&#45;&gt;A5 -->
<g id="edge3" class="edge">
<title>A2&#45;&gt;A5</title>
<path fill="none" stroke="#000000" d="M47,-125.9362C47,-112.335 47,-98.596 47,-86.1495"/>
<polygon fill="#000000" stroke="#000000" points="47,-76.0299 51.5001,-86.0299 47,-81.0299 47.0001,-86.0299 47.0001,-86.0299 47.0001,-86.0299 47,-81.0299 42.5001,-86.03 47,-76.0299 47,-76.0299"/>
<text text-anchor="middle" x="38.5476" y="-104.8101" font-family="Helvetica,sans-Serif" font-size="10.00" fill="#000000">..* vehicleID </text>
</g>
</g>
</svg>
